<svg xmlns="http://www.w3.org/2000/svg" width="20.976" height="21.403" viewBox="0 0 20.976 21.403"><defs><style>.a{fill:#fff;}</style></defs><path class="a" d="M20.845,20.311l-5.1-5.2a9.2,9.2,0,0,0,2.2-5.984A9.047,9.047,0,0,0,9,0,9.047,9.047,0,0,0,.05,9.126,9.05,9.05,0,0,0,9,18.252a8.809,8.809,0,0,0,5.866-2.24l5.1,5.2a.626.626,0,0,0,.442.19.607.607,0,0,0,.442-.19A.651.651,0,0,0,20.845,20.311ZM1.3,9.126a7.777,7.777,0,0,1,7.69-7.845,7.777,7.777,0,0,1,7.69,7.845,7.781,7.781,0,0,1-7.69,7.849A7.781,7.781,0,0,1,1.3,9.126Z" transform="translate(-0.05)"/></svg>